M48
;DRILL file {KiCad 4.0.7} date Tue May  8 01:50:05 2018
;FORMAT={-:-/ absolute / metric / decimal}
FMAT,2
METRIC,TZ
T1C0.400
T2C0.800
T3C1.000
%
G90
G05
M71
T1
X123.952Y-131.953
X123.952Y-134.112
X127.Y-131.953
X127.762Y-116.84
X127.762Y-125.222
X127.889Y-103.251
X127.889Y-111.252
X128.016Y-89.281
X128.016Y-96.647
X128.27Y-130.683
X130.429Y-130.683
X132.207Y-108.331
X132.334Y-89.281
X132.334Y-93.98
X132.334Y-103.251
X132.334Y-116.84
X132.334Y-121.793
X132.969Y-130.683
X135.255Y-130.556
X136.652Y-89.154
X136.652Y-102.362
X136.652Y-107.442
X136.652Y-115.697
X136.652Y-129.159
X138.303Y-127.762
X138.684Y-120.269
X138.684Y-122.047
X138.684Y-123.952
X138.684Y-125.857
X140.081Y-118.872
X141.097Y-117.856
X141.859Y-124.841
X142.189Y-123.114
X143.129Y-117.856
X144.653Y-134.112
X144.907Y-117.856
X146.05Y-112.395
X146.431Y-116.332
X146.558Y-105.41
X146.558Y-106.299
X147.32Y-110.363
X147.574Y-123.114
X147.574Y-124.46
X147.955Y-114.808
X148.209Y-110.363
X148.209Y-120.396
X149.352Y-113.411
X149.86Y-96.774
X149.86Y-97.663
X149.86Y-98.552
X149.86Y-99.441
X149.86Y-123.571
X150.749Y-123.571
X151.003Y-111.76
X151.511Y-108.839
X152.019Y-111.379
X152.273Y-109.855
X152.908Y-111.506
X154.305Y-109.855
X154.559Y-100.711
X154.559Y-101.6
X154.94Y-102.87
X154.94Y-103.759
X155.067Y-106.299
X155.321Y-111.76
X156.464Y-112.014
X156.591Y-118.364
X156.769Y-112.954
X156.947Y-113.741
X156.972Y-115.824
X157.226Y-98.425
X157.48Y-134.112
X158.115Y-125.476
X158.496Y-99.187
X159.131Y-106.045
X159.131Y-109.093
X159.131Y-113.411
X159.385Y-99.187
X159.893Y-98.552
X160.02Y-130.556
X160.35Y-114.63
X160.782Y-122.936
X161.544Y-102.87
X161.544Y-109.474
X161.798Y-97.917
X162.179Y-99.06
X162.496Y-114.49
X162.56Y-98.298
X162.814Y-113.665
X164.211Y-97.536
X164.846Y-109.982
X164.846Y-120.269
X165.608Y-98.933
X165.862Y-106.934
X167.64Y-112.141
X167.767Y-90.424
X167.767Y-91.313
X167.767Y-92.202
X168.021Y-97.536
X168.021Y-99.568
X169.037Y-102.235
X169.164Y-135.636
X170.434Y-103.759
X170.561Y-130.175
X171.196Y-97.663
X171.196Y-106.807
X171.577Y-113.284
X172.085Y-104.14
X172.085Y-105.918
X172.593Y-130.175
X173.101Y-114.935
X174.498Y-130.175
X175.006Y-106.172
X175.006Y-116.84
X175.006Y-119.761
X175.006Y-122.555
X175.006Y-124.587
X175.133Y-129.413
X177.165Y-103.632
X177.165Y-126.746
X177.165Y-128.905
X177.419Y-130.81
X178.181Y-98.933
X178.943Y-99.568
X179.324Y-135.636
X179.959Y-111.125
X180.086Y-125.476
X180.34Y-98.933
X180.34Y-133.604
X182.118Y-99.568
X182.753Y-90.424
X183.261Y-109.982
X183.388Y-123.952
X183.642Y-114.3
X185.039Y-113.157
X185.039Y-115.062
X185.293Y-128.143
X185.293Y-133.985
X185.42Y-90.424
X185.801Y-126.492
X191.897Y-90.932
X192.532Y-99.568
X193.04Y-113.284
X193.04Y-127.254
X200.66Y-113.284
X200.66Y-127.254
X200.787Y-99.568
X201.041Y-90.932
T2
X144.526Y-102.013
X144.526Y-104.013
X144.526Y-107.474
X144.526Y-109.474
X165.862Y-94.52
X165.862Y-96.52
T3
X109.59Y-95.13
X109.59Y-109.1
X109.59Y-123.07
X116.84Y-87.63
X116.84Y-95.13
X116.84Y-101.6
X116.84Y-109.1
X116.84Y-115.57
X116.84Y-123.07
X121.92Y-136.525
X121.92Y-139.065
X124.46Y-136.525
X124.46Y-139.065
X127.Y-136.525
X127.Y-139.065
X129.54Y-136.525
X129.54Y-139.065
X132.08Y-136.525
X132.08Y-139.065
X134.62Y-136.525
X134.62Y-139.065
X137.16Y-136.525
X137.16Y-139.065
X139.7Y-136.525
X139.7Y-139.065
X147.32Y-137.16
X147.32Y-139.7
X149.86Y-137.16
X149.86Y-139.7
X152.4Y-137.16
X152.4Y-139.7
X154.94Y-137.16
X154.94Y-139.7
X157.48Y-137.16
X157.48Y-139.7
X160.02Y-137.16
X160.02Y-139.7
X170.18Y-137.16
X170.18Y-139.7
X172.72Y-137.16
X172.72Y-139.7
X175.26Y-137.16
X175.26Y-139.7
X177.8Y-137.16
X177.8Y-139.7
X180.34Y-137.16
X180.34Y-139.7
X182.88Y-137.16
X182.88Y-139.7
X205.74Y-87.75
X205.74Y-95.25
X205.74Y-101.72
X205.74Y-109.22
X205.74Y-115.69
X205.74Y-123.19
X205.74Y-129.66
X205.74Y-137.16
X212.99Y-87.75
X212.99Y-101.72
X212.99Y-115.69
X212.99Y-129.66
T0
M30
