%FSLAX45Y45*%
G04 Gerber Fmt 4.5, Leading zero omitted, Abs format (unit mm)*
G04 Created by KiCad (PCBNEW 4.0.7) date Tue May  8 01:50:05 2018*
%MOMM*%
%LPD*%
G01*
G04 APERTURE LIST*
%ADD10C,0.127000*%
%ADD11C,0.100000*%
%ADD12C,0.200000*%
%ADD13C,0.300000*%
G04 APERTURE END LIST*
D10*
D11*
X21831300Y-14122400D02*
X10414000Y-14122400D01*
X21831300Y-8255000D02*
X10414000Y-8255000D01*
X10414000Y-14122400D02*
X10414000Y-8255000D01*
X21831300Y-8255000D02*
X21831300Y-14122400D01*
D12*
X11259000Y-8473000D02*
X11359000Y-8573000D01*
X11359000Y-8473000D02*
X11259000Y-8573000D01*
X11259000Y-9703000D02*
X11359000Y-9803000D01*
X11359000Y-9703000D02*
X11259000Y-9803000D01*
X11259000Y-9870000D02*
X11359000Y-9970000D01*
X11359000Y-9870000D02*
X11259000Y-9970000D01*
X11259000Y-11100000D02*
X11359000Y-11200000D01*
X11359000Y-11100000D02*
X11259000Y-11200000D01*
X11259000Y-11267000D02*
X11359000Y-11367000D01*
X11359000Y-11267000D02*
X11259000Y-11367000D01*
X11259000Y-12497000D02*
X11359000Y-12597000D01*
X11359000Y-12497000D02*
X11259000Y-12597000D01*
X20899000Y-8485000D02*
X20999000Y-8585000D01*
X20999000Y-8485000D02*
X20899000Y-8585000D01*
X20899000Y-9715000D02*
X20999000Y-9815000D01*
X20999000Y-9715000D02*
X20899000Y-9815000D01*
X20899000Y-9882000D02*
X20999000Y-9982000D01*
X20999000Y-9882000D02*
X20899000Y-9982000D01*
X20899000Y-11112000D02*
X20999000Y-11212000D01*
X20999000Y-11112000D02*
X20899000Y-11212000D01*
X20899000Y-11279000D02*
X20999000Y-11379000D01*
X20999000Y-11279000D02*
X20899000Y-11379000D01*
X20899000Y-12509000D02*
X20999000Y-12609000D01*
X20999000Y-12509000D02*
X20899000Y-12609000D01*
X20899000Y-12676000D02*
X20999000Y-12776000D01*
X20999000Y-12676000D02*
X20899000Y-12776000D01*
X20899000Y-13906000D02*
X20999000Y-14006000D01*
X20999000Y-13906000D02*
X20899000Y-14006000D01*
D13*
X10680429Y-14593114D02*
X10680429Y-14293114D01*
X10751857Y-14293114D01*
X10794714Y-14307400D01*
X10823286Y-14335971D01*
X10837571Y-14364543D01*
X10851857Y-14421686D01*
X10851857Y-14464543D01*
X10837571Y-14521686D01*
X10823286Y-14550257D01*
X10794714Y-14578829D01*
X10751857Y-14593114D01*
X10680429Y-14593114D01*
X10980429Y-14593114D02*
X10980429Y-14393114D01*
X10980429Y-14450257D02*
X10994714Y-14421686D01*
X11009000Y-14407400D01*
X11037571Y-14393114D01*
X11066143Y-14393114D01*
X11166143Y-14593114D02*
X11166143Y-14393114D01*
X11166143Y-14293114D02*
X11151857Y-14307400D01*
X11166143Y-14321686D01*
X11180429Y-14307400D01*
X11166143Y-14293114D01*
X11166143Y-14321686D01*
X11351857Y-14593114D02*
X11323286Y-14578829D01*
X11309000Y-14550257D01*
X11309000Y-14293114D01*
X11509000Y-14593114D02*
X11480428Y-14578829D01*
X11466143Y-14550257D01*
X11466143Y-14293114D01*
X11851857Y-14593114D02*
X11851857Y-14293114D01*
X11951857Y-14507400D01*
X12051857Y-14293114D01*
X12051857Y-14593114D01*
X12323286Y-14593114D02*
X12323286Y-14435971D01*
X12309000Y-14407400D01*
X12280428Y-14393114D01*
X12223286Y-14393114D01*
X12194714Y-14407400D01*
X12323286Y-14578829D02*
X12294714Y-14593114D01*
X12223286Y-14593114D01*
X12194714Y-14578829D01*
X12180428Y-14550257D01*
X12180428Y-14521686D01*
X12194714Y-14493114D01*
X12223286Y-14478829D01*
X12294714Y-14478829D01*
X12323286Y-14464543D01*
X12466143Y-14393114D02*
X12466143Y-14693114D01*
X12466143Y-14407400D02*
X12494714Y-14393114D01*
X12551857Y-14393114D01*
X12580428Y-14407400D01*
X12594714Y-14421686D01*
X12609000Y-14450257D01*
X12609000Y-14535971D01*
X12594714Y-14564543D01*
X12580428Y-14578829D01*
X12551857Y-14593114D01*
X12494714Y-14593114D01*
X12466143Y-14578829D01*
X12737571Y-14564543D02*
X12751857Y-14578829D01*
X12737571Y-14593114D01*
X12723286Y-14578829D01*
X12737571Y-14564543D01*
X12737571Y-14593114D01*
X12737571Y-14407400D02*
X12751857Y-14421686D01*
X12737571Y-14435971D01*
X12723286Y-14421686D01*
X12737571Y-14407400D01*
X12737571Y-14435971D01*
X10309000Y-15037400D02*
X10409000Y-15137400D01*
X10409000Y-15037400D02*
X10309000Y-15137400D01*
X10837571Y-15223114D02*
X10666143Y-15223114D01*
X10751857Y-15223114D02*
X10751857Y-14923114D01*
X10723286Y-14965971D01*
X10694714Y-14994543D01*
X10666143Y-15008829D01*
X10966143Y-15194543D02*
X10980429Y-15208829D01*
X10966143Y-15223114D01*
X10951857Y-15208829D01*
X10966143Y-15194543D01*
X10966143Y-15223114D01*
X11166143Y-14923114D02*
X11194714Y-14923114D01*
X11223286Y-14937400D01*
X11237571Y-14951686D01*
X11251857Y-14980257D01*
X11266143Y-15037400D01*
X11266143Y-15108829D01*
X11251857Y-15165971D01*
X11237571Y-15194543D01*
X11223286Y-15208829D01*
X11194714Y-15223114D01*
X11166143Y-15223114D01*
X11137571Y-15208829D01*
X11123286Y-15194543D01*
X11109000Y-15165971D01*
X11094714Y-15108829D01*
X11094714Y-15037400D01*
X11109000Y-14980257D01*
X11123286Y-14951686D01*
X11137571Y-14937400D01*
X11166143Y-14923114D01*
X11451857Y-14923114D02*
X11480428Y-14923114D01*
X11509000Y-14937400D01*
X11523286Y-14951686D01*
X11537571Y-14980257D01*
X11551857Y-15037400D01*
X11551857Y-15108829D01*
X11537571Y-15165971D01*
X11523286Y-15194543D01*
X11509000Y-15208829D01*
X11480428Y-15223114D01*
X11451857Y-15223114D01*
X11423286Y-15208829D01*
X11409000Y-15194543D01*
X11394714Y-15165971D01*
X11380428Y-15108829D01*
X11380428Y-15037400D01*
X11394714Y-14980257D01*
X11409000Y-14951686D01*
X11423286Y-14937400D01*
X11451857Y-14923114D01*
X11680428Y-15223114D02*
X11680428Y-15023114D01*
X11680428Y-15051686D02*
X11694714Y-15037400D01*
X11723286Y-15023114D01*
X11766143Y-15023114D01*
X11794714Y-15037400D01*
X11809000Y-15065971D01*
X11809000Y-15223114D01*
X11809000Y-15065971D02*
X11823286Y-15037400D01*
X11851857Y-15023114D01*
X11894714Y-15023114D01*
X11923286Y-15037400D01*
X11937571Y-15065971D01*
X11937571Y-15223114D01*
X12080428Y-15223114D02*
X12080428Y-15023114D01*
X12080428Y-15051686D02*
X12094714Y-15037400D01*
X12123286Y-15023114D01*
X12166143Y-15023114D01*
X12194714Y-15037400D01*
X12209000Y-15065971D01*
X12209000Y-15223114D01*
X12209000Y-15065971D02*
X12223286Y-15037400D01*
X12251857Y-15023114D01*
X12294714Y-15023114D01*
X12323286Y-15037400D01*
X12337571Y-15065971D01*
X12337571Y-15223114D01*
X12923286Y-14908829D02*
X12666143Y-15294543D01*
X13309000Y-14923114D02*
X13337571Y-14923114D01*
X13366143Y-14937400D01*
X13380428Y-14951686D01*
X13394714Y-14980257D01*
X13409000Y-15037400D01*
X13409000Y-15108829D01*
X13394714Y-15165971D01*
X13380428Y-15194543D01*
X13366143Y-15208829D01*
X13337571Y-15223114D01*
X13309000Y-15223114D01*
X13280428Y-15208829D01*
X13266143Y-15194543D01*
X13251857Y-15165971D01*
X13237571Y-15108829D01*
X13237571Y-15037400D01*
X13251857Y-14980257D01*
X13266143Y-14951686D01*
X13280428Y-14937400D01*
X13309000Y-14923114D01*
X13537571Y-15194543D02*
X13551857Y-15208829D01*
X13537571Y-15223114D01*
X13523286Y-15208829D01*
X13537571Y-15194543D01*
X13537571Y-15223114D01*
X13737571Y-14923114D02*
X13766143Y-14923114D01*
X13794714Y-14937400D01*
X13809000Y-14951686D01*
X13823285Y-14980257D01*
X13837571Y-15037400D01*
X13837571Y-15108829D01*
X13823285Y-15165971D01*
X13809000Y-15194543D01*
X13794714Y-15208829D01*
X13766143Y-15223114D01*
X13737571Y-15223114D01*
X13709000Y-15208829D01*
X13694714Y-15194543D01*
X13680428Y-15165971D01*
X13666143Y-15108829D01*
X13666143Y-15037400D01*
X13680428Y-14980257D01*
X13694714Y-14951686D01*
X13709000Y-14937400D01*
X13737571Y-14923114D01*
X13937571Y-14923114D02*
X14123285Y-14923114D01*
X14023285Y-15037400D01*
X14066143Y-15037400D01*
X14094714Y-15051686D01*
X14109000Y-15065971D01*
X14123285Y-15094543D01*
X14123285Y-15165971D01*
X14109000Y-15194543D01*
X14094714Y-15208829D01*
X14066143Y-15223114D01*
X13980428Y-15223114D01*
X13951857Y-15208829D01*
X13937571Y-15194543D01*
X14266143Y-15223114D02*
X14323285Y-15223114D01*
X14351857Y-15208829D01*
X14366143Y-15194543D01*
X14394714Y-15151686D01*
X14409000Y-15094543D01*
X14409000Y-14980257D01*
X14394714Y-14951686D01*
X14380428Y-14937400D01*
X14351857Y-14923114D01*
X14294714Y-14923114D01*
X14266143Y-14937400D01*
X14251857Y-14951686D01*
X14237571Y-14980257D01*
X14237571Y-15051686D01*
X14251857Y-15080257D01*
X14266143Y-15094543D01*
X14294714Y-15108829D01*
X14351857Y-15108829D01*
X14380428Y-15094543D01*
X14394714Y-15080257D01*
X14409000Y-15051686D01*
X14523286Y-14923114D02*
X14523286Y-14980257D01*
X14637571Y-14923114D02*
X14637571Y-14980257D01*
X15080428Y-15337400D02*
X15066143Y-15323114D01*
X15037571Y-15280257D01*
X15023285Y-15251686D01*
X15009000Y-15208829D01*
X14994714Y-15137400D01*
X14994714Y-15080257D01*
X15009000Y-15008829D01*
X15023285Y-14965971D01*
X15037571Y-14937400D01*
X15066143Y-14894543D01*
X15080428Y-14880257D01*
X15351857Y-15223114D02*
X15180428Y-15223114D01*
X15266143Y-15223114D02*
X15266143Y-14923114D01*
X15237571Y-14965971D01*
X15209000Y-14994543D01*
X15180428Y-15008829D01*
X15609000Y-15023114D02*
X15609000Y-15223114D01*
X15537571Y-14908829D02*
X15466143Y-15123114D01*
X15651857Y-15123114D01*
X15994714Y-15223114D02*
X15994714Y-14923114D01*
X16123285Y-15223114D02*
X16123285Y-15065971D01*
X16109000Y-15037400D01*
X16080428Y-15023114D01*
X16037571Y-15023114D01*
X16009000Y-15037400D01*
X15994714Y-15051686D01*
X16309000Y-15223114D02*
X16280428Y-15208829D01*
X16266143Y-15194543D01*
X16251857Y-15165971D01*
X16251857Y-15080257D01*
X16266143Y-15051686D01*
X16280428Y-15037400D01*
X16309000Y-15023114D01*
X16351857Y-15023114D01*
X16380428Y-15037400D01*
X16394714Y-15051686D01*
X16409000Y-15080257D01*
X16409000Y-15165971D01*
X16394714Y-15194543D01*
X16380428Y-15208829D01*
X16351857Y-15223114D01*
X16309000Y-15223114D01*
X16580428Y-15223114D02*
X16551857Y-15208829D01*
X16537571Y-15180257D01*
X16537571Y-14923114D01*
X16809000Y-15208829D02*
X16780429Y-15223114D01*
X16723286Y-15223114D01*
X16694714Y-15208829D01*
X16680428Y-15180257D01*
X16680428Y-15065971D01*
X16694714Y-15037400D01*
X16723286Y-15023114D01*
X16780429Y-15023114D01*
X16809000Y-15037400D01*
X16823286Y-15065971D01*
X16823286Y-15094543D01*
X16680428Y-15123114D01*
X16937571Y-15208829D02*
X16966143Y-15223114D01*
X17023286Y-15223114D01*
X17051857Y-15208829D01*
X17066143Y-15180257D01*
X17066143Y-15165971D01*
X17051857Y-15137400D01*
X17023286Y-15123114D01*
X16980429Y-15123114D01*
X16951857Y-15108829D01*
X16937571Y-15080257D01*
X16937571Y-15065971D01*
X16951857Y-15037400D01*
X16980429Y-15023114D01*
X17023286Y-15023114D01*
X17051857Y-15037400D01*
X17166143Y-15337400D02*
X17180429Y-15323114D01*
X17209000Y-15280257D01*
X17223286Y-15251686D01*
X17237571Y-15208829D01*
X17251857Y-15137400D01*
X17251857Y-15080257D01*
X17237571Y-15008829D01*
X17223286Y-14965971D01*
X17209000Y-14937400D01*
X17180429Y-14894543D01*
X17166143Y-14880257D01*
X17709000Y-15337400D02*
X17694714Y-15323114D01*
X17666143Y-15280257D01*
X17651857Y-15251686D01*
X17637571Y-15208829D01*
X17623286Y-15137400D01*
X17623286Y-15080257D01*
X17637571Y-15008829D01*
X17651857Y-14965971D01*
X17666143Y-14937400D01*
X17694714Y-14894543D01*
X17709000Y-14880257D01*
X17823286Y-15023114D02*
X17823286Y-15223114D01*
X17823286Y-15051686D02*
X17837571Y-15037400D01*
X17866143Y-15023114D01*
X17909000Y-15023114D01*
X17937571Y-15037400D01*
X17951857Y-15065971D01*
X17951857Y-15223114D01*
X18137571Y-15223114D02*
X18109000Y-15208829D01*
X18094714Y-15194543D01*
X18080429Y-15165971D01*
X18080429Y-15080257D01*
X18094714Y-15051686D01*
X18109000Y-15037400D01*
X18137571Y-15023114D01*
X18180429Y-15023114D01*
X18209000Y-15037400D01*
X18223286Y-15051686D01*
X18237571Y-15080257D01*
X18237571Y-15165971D01*
X18223286Y-15194543D01*
X18209000Y-15208829D01*
X18180429Y-15223114D01*
X18137571Y-15223114D01*
X18323286Y-15023114D02*
X18437571Y-15023114D01*
X18366143Y-14923114D02*
X18366143Y-15180257D01*
X18380429Y-15208829D01*
X18409000Y-15223114D01*
X18437571Y-15223114D01*
X18766143Y-15023114D02*
X18766143Y-15323114D01*
X18766143Y-15037400D02*
X18794714Y-15023114D01*
X18851857Y-15023114D01*
X18880429Y-15037400D01*
X18894714Y-15051686D01*
X18909000Y-15080257D01*
X18909000Y-15165971D01*
X18894714Y-15194543D01*
X18880429Y-15208829D01*
X18851857Y-15223114D01*
X18794714Y-15223114D01*
X18766143Y-15208829D01*
X19080429Y-15223114D02*
X19051857Y-15208829D01*
X19037571Y-15180257D01*
X19037571Y-14923114D01*
X19323286Y-15223114D02*
X19323286Y-15065971D01*
X19309000Y-15037400D01*
X19280429Y-15023114D01*
X19223286Y-15023114D01*
X19194714Y-15037400D01*
X19323286Y-15208829D02*
X19294714Y-15223114D01*
X19223286Y-15223114D01*
X19194714Y-15208829D01*
X19180429Y-15180257D01*
X19180429Y-15151686D01*
X19194714Y-15123114D01*
X19223286Y-15108829D01*
X19294714Y-15108829D01*
X19323286Y-15094543D01*
X19423286Y-15023114D02*
X19537571Y-15023114D01*
X19466143Y-14923114D02*
X19466143Y-15180257D01*
X19480429Y-15208829D01*
X19509000Y-15223114D01*
X19537571Y-15223114D01*
X19751857Y-15208829D02*
X19723286Y-15223114D01*
X19666143Y-15223114D01*
X19637572Y-15208829D01*
X19623286Y-15180257D01*
X19623286Y-15065971D01*
X19637572Y-15037400D01*
X19666143Y-15023114D01*
X19723286Y-15023114D01*
X19751857Y-15037400D01*
X19766143Y-15065971D01*
X19766143Y-15094543D01*
X19623286Y-15123114D01*
X20023286Y-15223114D02*
X20023286Y-14923114D01*
X20023286Y-15208829D02*
X19994714Y-15223114D01*
X19937572Y-15223114D01*
X19909000Y-15208829D01*
X19894714Y-15194543D01*
X19880429Y-15165971D01*
X19880429Y-15080257D01*
X19894714Y-15051686D01*
X19909000Y-15037400D01*
X19937572Y-15023114D01*
X19994714Y-15023114D01*
X20023286Y-15037400D01*
X20137572Y-15337400D02*
X20151857Y-15323114D01*
X20180429Y-15280257D01*
X20194714Y-15251686D01*
X20209000Y-15208829D01*
X20223286Y-15137400D01*
X20223286Y-15080257D01*
X20209000Y-15008829D01*
X20194714Y-14965971D01*
X20180429Y-14937400D01*
X20151857Y-14894543D01*
X20137572Y-14880257D01*
M02*
